<svg width="906" height="326" viewBox="0 0 906 326" fill="none" xmlns="http://www.w3.org/2000/svg">
<g style="mix-blend-mode:luminosity">
<path fill-rule="evenodd" clip-rule="evenodd" d="M460.191 35.1476C506.68 40.5953 582.211 23.2473 603.951 39.8601C637.198 65.266 512.687 108.386 575.74 123.445C667.467 145.352 820.086 79.3159 894.594 109.273C954.281 133.272 763.44 150.888 698.348 172.742C672.701 181.352 625.013 186.586 625.469 199.626C626.596 231.827 721.108 259.136 702.469 290.543C689.24 312.832 610.083 328.348 550.642 325.707C483.746 322.735 455.163 289.845 396.868 276.964C358.262 268.434 297.901 276.604 269.281 263.54C238.471 249.475 286.15 221.47 249.424 209.657C185.531 189.105 63.8535 206.464 13.0812 181.129C-24.4944 162.379 28.0597 134.107 55.6874 112.984C81.751 93.0564 133.506 80.6596 167.987 62.6946C206.227 42.7718 208.147 6.75591 270.941 0.836166C339.485 -5.62573 392.695 27.238 460.191 35.1476Z" fill="#D9EAF7"/>
</g>
</svg>
