<svg width="906" height="292" viewBox="0 0 906 292" fill="none" xmlns="http://www.w3.org/2000/svg">
<path fill-rule="evenodd" clip-rule="evenodd" d="M460.191 31.4819C506.68 36.3614 582.211 20.8227 603.951 35.7029C637.198 58.4591 512.687 97.0822 575.74 110.57C667.467 130.192 820.086 71.0437 894.594 97.8767C954.281 119.372 763.44 135.152 698.348 154.726C672.701 162.438 625.013 167.126 625.469 178.806C626.596 207.649 721.108 232.11 702.469 260.241C689.24 280.206 610.083 294.103 550.642 291.738C483.746 289.076 455.163 259.615 396.868 248.078C358.262 240.438 297.901 247.756 269.281 236.054C238.471 223.456 286.15 198.372 249.424 187.791C185.531 169.382 63.8535 184.931 13.0812 162.239C-24.4944 145.444 28.0597 120.12 55.6874 101.2C81.751 83.3512 133.506 72.2473 167.987 56.1559C206.227 38.3109 208.147 6.05131 270.941 0.748959C339.485 -5.039 392.695 24.3972 460.191 31.4819Z" fill="#B0DCFF" fill-opacity="0.3"/>
</svg>
