<svg width="40" height="40" viewBox="0 0 40 40" fill="none" xmlns="http://www.w3.org/2000/svg">
<circle cx="20" cy="20" r="19.5" stroke="#D4D4D8"/>
<path d="M28.871 15.6901C28.2723 15.9562 27.6405 16.1224 26.9754 16.2222C27.6405 15.8231 28.1726 15.1913 28.4054 14.4264C27.7735 14.7922 27.0751 15.0583 26.3103 15.2245C25.7117 14.5927 24.847 14.1936 23.9158 14.1936C22.12 14.1936 20.6568 15.6569 20.6568 17.4527C20.6568 17.7187 20.69 17.9515 20.7566 18.1843C18.0628 18.0513 15.6352 16.7543 14.0056 14.759C13.7396 15.2578 13.5733 15.7899 13.5733 16.3885C13.5733 17.5192 14.1387 18.5168 15.0366 19.1155C14.5045 19.0822 14.0056 18.9492 13.5401 18.7164V18.7496C13.5401 20.3459 14.6708 21.6761 16.1673 21.9754C15.9012 22.042 15.6019 22.0752 15.3026 22.0752C15.1031 22.0752 14.8703 22.042 14.6708 22.0087C15.1031 23.3057 16.3003 24.2701 17.7303 24.2701C16.5996 25.1347 15.2028 25.6668 13.6731 25.6668C13.407 25.6668 13.141 25.6668 12.9082 25.6336C14.3715 26.5647 16.0675 27.0968 17.9298 27.0968C23.9491 27.0968 27.2414 22.1085 27.2414 17.7852C27.2414 17.6522 27.2414 17.4859 27.2414 17.3529C27.8733 16.9206 28.4386 16.3552 28.871 15.6901Z" fill="#090914"/>
</svg>
