<svg width="40" height="40" viewBox="0 0 40 40" fill="none" xmlns="http://www.w3.org/2000/svg">
<circle cx="20" cy="20" r="19.5" stroke="#D4D4D8"/>
<path d="M19.9997 12.0673C22.5836 12.0673 22.8895 12.0769 23.9103 12.1235C24.524 12.131 25.1319 12.2437 25.7075 12.4567C26.125 12.6177 26.5041 12.8643 26.8204 13.1806C27.1368 13.497 27.3834 13.8761 27.5444 14.2935C27.7574 14.8692 27.8701 15.477 27.8776 16.0908C27.9236 17.1115 27.9338 17.4175 27.9338 20.0014C27.9338 22.5852 27.9241 22.8912 27.8776 23.912C27.8701 24.5257 27.7574 25.1336 27.5444 25.7092C27.3834 26.1266 27.1368 26.5057 26.8204 26.8221C26.5041 27.1385 26.125 27.3851 25.7075 27.5461C25.1319 27.759 24.524 27.8717 23.9103 27.8792C22.89 27.9253 22.584 27.9355 19.9997 27.9355C17.4154 27.9355 17.1094 27.9258 16.0891 27.8792C15.4754 27.8717 14.8675 27.759 14.2919 27.5461C13.8744 27.3851 13.4953 27.1385 13.1789 26.8221C12.8626 26.5057 12.616 26.1266 12.455 25.7092C12.242 25.1336 12.1293 24.5257 12.1218 23.912C12.0757 22.8912 12.0656 22.5852 12.0656 20.0014C12.0656 17.4175 12.0753 17.1115 12.1218 16.0908C12.1293 15.477 12.242 14.8692 12.455 14.2935C12.616 13.8761 12.8626 13.497 13.1789 13.1806C13.4953 12.8643 13.8744 12.6177 14.2919 12.4567C14.8675 12.2437 15.4754 12.131 16.0891 12.1235C17.1098 12.0774 17.4158 12.0673 19.9997 12.0673ZM19.9997 10.3235C17.373 10.3235 17.0421 10.3345 16.0098 10.3816C15.2066 10.3975 14.4119 10.5496 13.6596 10.8313C13.0142 11.0745 12.4296 11.4555 11.9467 11.9479C11.4539 12.431 11.0725 13.0159 10.8292 13.6617C10.5475 14.4141 10.3954 15.2088 10.3794 16.012C10.3333 17.0433 10.3223 17.3742 10.3223 20.0009C10.3223 22.6276 10.3333 22.9585 10.3803 23.9908C10.3963 24.794 10.5484 25.5886 10.8301 26.341C11.0731 26.9867 11.4542 27.5716 11.9467 28.0548C12.4299 28.5473 13.0148 28.9284 13.6605 29.1714C14.4129 29.4531 15.2075 29.6052 16.0107 29.6212C17.043 29.6673 17.3725 29.6792 20.0006 29.6792C22.6287 29.6792 22.9582 29.6682 23.9905 29.6212C24.7937 29.6052 25.5883 29.4531 26.3407 29.1714C26.9834 28.9223 27.567 28.5418 28.0542 28.0543C28.5414 27.5667 28.9215 26.9829 29.1702 26.3401C29.4519 25.5877 29.604 24.793 29.62 23.9898C29.666 22.9585 29.6771 22.6276 29.6771 20.0009C29.6771 17.3742 29.666 17.0433 29.619 16.011C29.6031 15.2078 29.451 14.4132 29.1693 13.6608C28.9262 13.0151 28.5452 12.4302 28.0527 11.947C27.5695 11.4545 26.9846 11.0734 26.3389 10.8304C25.5865 10.5487 24.7918 10.3966 23.9886 10.3806C22.9573 10.3345 22.6264 10.3235 19.9997 10.3235Z" fill="#090914"/>
<path d="M20.0008 15.0337C19.0179 15.0337 18.0571 15.3252 17.2399 15.8712C16.4226 16.4173 15.7857 17.1934 15.4095 18.1015C15.0334 19.0096 14.935 20.0088 15.1267 20.9728C15.3185 21.9368 15.7918 22.8223 16.4868 23.5173C17.1818 24.2123 18.0673 24.6856 19.0313 24.8774C19.9953 25.0691 20.9945 24.9707 21.9026 24.5946C22.8107 24.2184 23.5868 23.5815 24.1329 22.7642C24.679 21.947 24.9704 20.9862 24.9704 20.0033C24.9704 18.6853 24.4468 17.4212 23.5149 16.4892C22.5829 15.5573 21.3189 15.0337 20.0008 15.0337ZM20.0008 23.2291C19.3628 23.2291 18.7392 23.0399 18.2087 22.6854C17.6782 22.331 17.2647 21.8272 17.0206 21.2377C16.7764 20.6483 16.7125 19.9997 16.837 19.374C16.9615 18.7482 17.2687 18.1734 17.7198 17.7223C18.171 17.2712 18.7458 16.9639 19.3715 16.8395C19.9973 16.715 20.6459 16.7789 21.2353 17.023C21.8247 17.2672 22.3285 17.6806 22.683 18.2111C23.0375 18.7416 23.2266 19.3653 23.2266 20.0033C23.2266 20.8588 22.8868 21.6793 22.2818 22.2843C21.6769 22.8892 20.8564 23.2291 20.0008 23.2291Z" fill="#090914"/>
<path d="M25.1671 15.9964C25.8085 15.9964 26.3284 15.4765 26.3284 14.8351C26.3284 14.1938 25.8085 13.6738 25.1671 13.6738C24.5258 13.6738 24.0059 14.1938 24.0059 14.8351C24.0059 15.4765 24.5258 15.9964 25.1671 15.9964Z" fill="#090914"/>
</svg>
