<svg width="40" height="40" viewBox="0 0 40 40" fill="none" xmlns="http://www.w3.org/2000/svg">
<circle cx="20" cy="20" r="19.5" stroke="#D4D4D8"/>
<path fill-rule="evenodd" clip-rule="evenodd" d="M20.8644 10.3235C15.7345 10.3235 11.6074 14.4506 11.6074 19.5805C11.6074 23.669 14.2688 27.1404 17.933 28.3746C18.3959 28.4518 18.5502 28.1818 18.5502 27.9118C18.5502 27.6803 18.5502 27.1018 18.5502 26.3304C15.9659 26.9089 15.4259 25.0961 15.4259 25.0961C15.0017 24.0161 14.3845 23.7461 14.3845 23.7461C13.536 23.1676 14.4617 23.1676 14.4617 23.1676C15.3874 23.2447 15.8888 24.1318 15.8888 24.1318C16.6988 25.559 18.0487 25.1347 18.5887 24.9033C18.6659 24.2861 18.8973 23.9004 19.1673 23.669C17.123 23.4376 14.9631 22.6276 14.9631 19.0791C14.9631 18.0762 15.3102 17.2277 15.9274 16.6105C15.8502 16.3791 15.5031 15.4534 16.0045 14.142C16.0045 14.142 16.7759 13.9106 18.5502 15.1063C19.283 14.9134 20.093 14.7977 20.8644 14.7977C21.6358 14.7977 22.4458 14.9134 23.1787 15.1063C24.9529 13.9106 25.7243 14.142 25.7243 14.142C26.2258 15.4148 25.9172 16.3405 25.8015 16.6105C26.38 17.2662 26.7657 18.0762 26.7657 19.0791C26.7657 22.6276 24.6058 23.399 22.523 23.6304C22.8701 23.9004 23.1401 24.479 23.1401 25.3275C23.1401 26.5618 23.1401 27.5646 23.1401 27.8732C23.1401 28.1046 23.2944 28.4132 23.7958 28.3361C27.46 27.1404 30.1214 23.669 30.1214 19.5805C30.1214 14.4506 25.9943 10.3235 20.8644 10.3235Z" fill="#090914"/>
</svg>
