<svg width="25" height="25" viewBox="0 0 25 25" fill="none" xmlns="http://www.w3.org/2000/svg">
<g clip-path="url(#clip0_4676_4983)">
<path fill-rule="evenodd" clip-rule="evenodd" d="M12.2037 17.2515C12.1121 17.214 12.0267 17.1578 11.9527 17.0838L11.9475 17.0796L8.80275 13.9244C8.65062 13.7724 8.57462 13.5724 8.57462 13.3724C8.57462 13.1724 8.65175 12.9724 8.80487 12.8193C9.11 12.515 9.60487 12.5161 9.909 12.8213L11.7225 14.64V8.46608C11.7225 8.03483 12.0725 7.68483 12.5038 7.68483C12.935 7.68483 13.285 8.03483 13.285 8.46608V14.638L15.0923 12.8213C15.3975 12.5161 15.8923 12.515 16.1975 12.8193C16.5038 13.1234 16.5038 13.6181 16.2007 13.9244L13.06 17.0786L13.0548 17.0838C12.9819 17.1578 12.8965 17.213 12.8048 17.2515C12.7121 17.29 12.6111 17.3119 12.5038 17.3119C12.3975 17.3119 12.2955 17.29 12.2037 17.2515ZM22.3965 12.4984C22.3965 7.04108 17.9569 2.60254 12.5007 2.60254C7.04437 2.60254 2.60487 7.04108 2.60487 12.4984C2.60487 17.9546 7.04437 22.3943 12.5007 22.3943C17.9569 22.3943 22.3965 17.9546 22.3965 12.4984Z" fill="#008FFF"/>
</g>
<defs>
<clipPath id="clip0_4676_4983">
<rect width="25" height="25" fill="white" transform="matrix(0 1 -1 0 25 0)"/>
</clipPath>
</defs>
</svg>
