<svg width="45" height="45" viewBox="0 0 45 45" fill="none" xmlns="http://www.w3.org/2000/svg">
<rect x="0.5" y="0.5" width="44" height="44" rx="22" fill="#E6EAEC"/>
<g clip-path="url(#clip0_1496_290)">
<path d="M27.3505 17.35L28.7905 18.79L23.9105 23.67L20.6205 20.38C20.2305 19.99 19.6005 19.99 19.2105 20.38L13.2105 26.39C12.8205 26.78 12.8205 27.41 13.2105 27.8C13.6005 28.19 14.2305 28.19 14.6205 27.8L19.9105 22.5L23.2005 25.79C23.5905 26.18 24.2205 26.18 24.6105 25.79L30.2005 20.21L31.6405 21.65C31.9505 21.96 32.4905 21.74 32.4905 21.3V17C32.5005 16.72 32.2805 16.5 32.0005 16.5H27.7105C27.2605 16.5 27.0405 17.04 27.3505 17.35Z" fill="#323232"/>
</g>
<defs>
<clipPath id="clip0_1496_290">
<rect width="24" height="24" fill="white" transform="translate(10.5 10.5)"/>
</clipPath>
</defs>
</svg>
