<svg width="60" height="61" viewBox="0 0 60 61" fill="none" xmlns="http://www.w3.org/2000/svg">
<circle cx="30" cy="30.937" r="30" fill="#F9EEB0"/>
<path fill-rule="evenodd" clip-rule="evenodd" d="M30.0754 14.687C33.1363 14.687 35.5357 14.687 37.4392 14.8932C39.3818 15.1037 40.9557 15.5409 42.2996 16.5173C43.1132 17.1084 43.8286 17.8238 44.4197 18.6374C45.3961 19.9813 45.8333 21.5552 46.0438 23.4978C46.25 25.4013 46.25 27.8007 46.25 30.8616V31.0126C46.25 34.0734 46.25 36.4727 46.0438 38.3762C45.8333 40.3188 45.3961 41.8927 44.4197 43.2366C43.8287 44.0502 43.1132 44.7657 42.2996 45.3568C40.9557 46.3331 39.3818 46.7703 37.4392 46.9808C35.5357 47.187 33.1363 47.187 30.0755 47.187H29.9244C26.8636 47.187 24.4643 47.187 22.5608 46.9808C20.6182 46.7703 19.0443 46.3331 17.7004 45.3568C16.8868 44.7657 16.1713 44.0502 15.5803 43.2366C14.6039 41.8927 14.1667 40.3188 13.9562 38.3762C13.75 36.4727 13.75 34.0733 13.75 31.0124V30.8616C13.75 27.8007 13.75 25.4014 13.9562 23.4978C14.1667 21.5552 14.6039 19.9813 15.5803 18.6374C16.1714 17.8238 16.8868 17.1084 17.7004 16.5173C19.0443 15.5409 20.6182 15.1037 22.5608 14.8932C24.4644 14.687 26.8637 14.687 29.9246 14.687H30.0754ZM31.25 22.6037C31.25 21.9133 30.6904 21.3537 30 21.3537C29.3096 21.3537 28.75 21.9133 28.75 22.6037V39.2703C28.75 39.9607 29.3096 40.5203 30 40.5203C30.6904 40.5203 31.25 39.9607 31.25 39.2703V22.6037ZM37.9167 29.2703C37.9167 28.58 37.357 28.0203 36.6667 28.0203C35.9763 28.0203 35.4167 28.58 35.4167 29.2703V39.2703C35.4167 39.9607 35.9763 40.5203 36.6667 40.5203C37.357 40.5203 37.9167 39.9607 37.9167 39.2703V29.2703ZM24.5833 32.6037C24.5833 31.9133 24.0237 31.3537 23.3333 31.3537C22.643 31.3537 22.0833 31.9133 22.0833 32.6037V39.2703C22.0833 39.9607 22.643 40.5203 23.3333 40.5203C24.0237 40.5203 24.5833 39.9607 24.5833 39.2703V32.6037Z" fill="#EDC700"/>
</svg>
