<svg width="15" height="14" viewBox="0 0 15 14" fill="none" xmlns="http://www.w3.org/2000/svg">
<g clip-path="url(#clip0_3144_1730)">
<path d="M13.3327 6.46334V7C13.332 8.25792 12.9246 9.4819 12.1715 10.4894C11.4183 11.4969 10.3596 12.2339 9.15331 12.5906C7.94702 12.9473 6.65775 12.9044 5.47779 12.4685C4.29783 12.0326 3.2904 11.2269 2.60574 10.1716C1.92109 9.11636 1.59589 7.86804 1.67866 6.61285C1.76143 5.35766 2.24772 4.16286 3.06501 3.20663C3.8823 2.2504 4.98681 1.58398 6.21379 1.30675C7.44078 1.02953 8.72451 1.15637 9.87352 1.66834" stroke="white" stroke-width="1.5" stroke-linecap="round" stroke-linejoin="round"/>
<path d="M13.3333 2.33337L7.5 8.17254L5.75 6.42254" stroke="white" stroke-width="1.5" stroke-linecap="round" stroke-linejoin="round"/>
</g>
<defs>
<clipPath id="clip0_3144_1730">
<rect width="14" height="14" fill="white" transform="translate(0.5)"/>
</clipPath>
</defs>
</svg>
