<svg width="52" height="52" viewBox="0 0 52 52" fill="none" xmlns="http://www.w3.org/2000/svg">
<g clip-path="url(#clip0_1955_375)">
<path d="M43.3333 15.1667V41.1667C43.3333 42.3583 42.3583 43.3333 41.1667 43.3333H15.1667C13.975 43.3333 13 44.3083 13 45.5C13 46.6917 13.975 47.6667 15.1667 47.6667H43.3333C45.7167 47.6667 47.6667 45.7167 47.6667 43.3333V15.1667C47.6667 13.975 46.6917 13 45.5 13C44.3083 13 43.3333 13.975 43.3333 15.1667Z" fill="#002746"/>
<path d="M34.6663 4.33337H8.66634C6.28301 4.33337 4.33301 6.28337 4.33301 8.66671V34.6667C4.33301 37.05 6.28301 39 8.66634 39H34.6663C37.0497 39 38.9997 37.05 38.9997 34.6667V8.66671C38.9997 6.28337 37.0497 4.33337 34.6663 4.33337ZM19.4997 34.6667H8.66634V23.8334H19.4997V34.6667ZM34.6663 34.6667H23.833V23.8334H34.6663V34.6667ZM34.6663 19.5H8.66634V8.66671H34.6663V19.5Z" fill="#002746"/>
</g>
<defs>
<clipPath id="clip0_1955_375">
<rect width="52" height="52" fill="white"/>
</clipPath>
</defs>
</svg>
