<svg width="45" height="45" viewBox="0 0 45 45" fill="none" xmlns="http://www.w3.org/2000/svg">
<g clip-path="url(#clip0_1955_354)">
<path d="M39.9186 11.0437L21.1686 29.7937C20.4374 30.525 19.2561 30.525 18.5249 29.7937L13.2186 24.4875C12.4874 23.7562 12.4874 22.575 13.2186 21.8437C13.9499 21.1125 15.1311 21.1125 15.8624 21.8437L19.8374 25.8187L37.2561 8.39999C37.9874 7.66874 39.1686 7.66874 39.8999 8.39999C40.6499 9.13124 40.6499 10.3125 39.9186 11.0437ZM22.4999 37.5C13.6686 37.5 6.59986 29.8312 7.59361 20.8125C8.32486 14.2125 13.4436 8.79374 19.9874 7.70624C23.3811 7.14374 26.6061 7.74374 29.3436 9.16874C30.0749 9.54374 30.9561 9.41249 31.5374 8.83124C32.4374 7.93124 32.2124 6.41249 31.0874 5.83124C28.3311 4.42499 25.2186 3.65624 21.8999 3.74999C12.2624 4.04999 4.25611 11.8875 3.76861 21.5062C3.22486 32.325 11.8124 41.25 22.4999 41.25C24.7499 41.25 26.8874 40.8562 28.8936 40.125C30.1686 39.6562 30.5249 38.0062 29.5499 37.0312C29.0436 36.525 28.2749 36.3375 27.5999 36.6C26.0061 37.1812 24.2811 37.5 22.4999 37.5ZM35.6249 28.125H31.8749C30.8436 28.125 29.9999 28.9687 29.9999 30C29.9999 31.0312 30.8436 31.875 31.8749 31.875H35.6249V35.625C35.6249 36.6562 36.4686 37.5 37.4999 37.5C38.5311 37.5 39.3749 36.6562 39.3749 35.625V31.875H43.1249C44.1561 31.875 44.9999 31.0312 44.9999 30C44.9999 28.9687 44.1561 28.125 43.1249 28.125H39.3749V24.375C39.3749 23.3437 38.5311 22.5 37.4999 22.5C36.4686 22.5 35.6249 23.3437 35.6249 24.375V28.125Z" fill="#002746"/>
</g>
<defs>
<clipPath id="clip0_1955_354">
<rect width="45" height="45" fill="white"/>
</clipPath>
</defs>
</svg>
