<svg width="52" height="52" viewBox="0 0 52 52" fill="none" xmlns="http://www.w3.org/2000/svg">
<g clip-path="url(#clip0_1955_382)">
<path d="M41.1449 24.9167C41.8815 24.9167 42.6182 24.9817 43.3332 25.0684V5.24335C43.3332 3.31502 40.9932 2.34002 39.6282 3.70502L3.70487 39.6284C2.33987 40.9934 3.2932 43.3334 5.22153 43.3334H25.0465C24.9599 42.6184 24.8949 41.9034 24.8949 41.1667C24.8949 32.1967 32.1749 24.9167 41.1449 24.9167ZM49.1832 42.2284C49.2265 41.8817 49.2699 41.535 49.2699 41.1667C49.2699 40.7984 49.2482 40.4517 49.1832 40.105L51.4799 38.3067C51.6749 38.1334 51.7399 37.8517 51.6099 37.6134L49.4432 33.865C49.3132 33.6267 49.0315 33.54 48.7715 33.6267L46.0849 34.71C45.5215 34.2767 44.9149 33.9084 44.2432 33.6484L43.8315 30.7884C43.8099 30.5284 43.5715 30.3334 43.3115 30.3334H38.9782C38.7182 30.3334 38.4799 30.5284 38.4365 30.7884L38.0249 33.6484C37.3749 33.93 36.7465 34.2767 36.1832 34.71L33.4965 33.6267C33.2582 33.54 32.9765 33.6267 32.8249 33.865L30.6582 37.6134C30.5282 37.8517 30.5715 38.1334 30.7882 38.3067L33.0849 40.105C33.0415 40.4517 33.0199 40.7984 33.0199 41.1667C33.0199 41.535 33.0415 41.8817 33.0849 42.2284L30.7882 44.0267C30.5932 44.2 30.5282 44.4817 30.6582 44.72L32.8249 48.4684C32.9549 48.7067 33.2365 48.7934 33.4965 48.7067L36.1832 47.6234C36.7465 48.0567 37.3532 48.425 38.0249 48.685L38.4365 51.545C38.4799 51.805 38.6965 52 38.9782 52H43.3115C43.5715 52 43.8099 51.805 43.8532 51.545L44.2649 48.685C44.9149 48.4034 45.5432 48.0567 46.0849 47.6234L48.7932 48.7067C49.0315 48.7934 49.3132 48.7067 49.4649 48.4684L51.6315 44.72C51.7615 44.4817 51.6965 44.2 51.5015 44.0267L49.1832 42.2284ZM41.1449 44.4167C39.3465 44.4167 37.8949 42.965 37.8949 41.1667C37.8949 39.3684 39.3465 37.9167 41.1449 37.9167C42.9432 37.9167 44.3949 39.3684 44.3949 41.1667C44.3949 42.965 42.9432 44.4167 41.1449 44.4167Z" fill="#002746"/>
</g>
<defs>
<clipPath id="clip0_1955_382">
<rect width="52" height="52" fill="white"/>
</clipPath>
</defs>
</svg>
