<svg width="52" height="52" viewBox="0 0 52 52" fill="none" xmlns="http://www.w3.org/2000/svg">
<g clip-path="url(#clip0_1955_361)">
<path fill-rule="evenodd" clip-rule="evenodd" d="M43.333 6.5H8.66634C6.28301 6.5 4.33301 8.45 4.33301 10.8333V41.1667C4.33301 43.55 6.28301 45.5 8.66634 45.5H43.333C45.7163 45.5 47.6663 43.55 47.6663 41.1667V10.8333C47.6663 8.45 45.7163 6.5 43.333 6.5ZM19.4997 36.8333H12.9997C11.808 36.8333 10.833 35.8583 10.833 34.6667C10.833 33.475 11.808 32.5 12.9997 32.5H19.4997C20.6913 32.5 21.6663 33.475 21.6663 34.6667C21.6663 35.8583 20.6913 36.8333 19.4997 36.8333ZM19.4997 28.1667H12.9997C11.808 28.1667 10.833 27.1917 10.833 26C10.833 24.8083 11.808 23.8333 12.9997 23.8333H19.4997C20.6913 23.8333 21.6663 24.8083 21.6663 26C21.6663 27.1917 20.6913 28.1667 19.4997 28.1667ZM19.4997 19.5H12.9997C11.808 19.5 10.833 18.525 10.833 17.3333C10.833 16.1417 11.808 15.1667 12.9997 15.1667H19.4997C20.6913 15.1667 21.6663 16.1417 21.6663 17.3333C21.6663 18.525 20.6913 19.5 19.4997 19.5ZM40.5163 24.0933L33.648 30.9617C32.803 31.8067 31.4163 31.8067 30.5713 30.9617L27.5163 27.885C26.6713 27.04 26.6713 25.675 27.5163 24.83C28.3613 23.985 29.7263 23.985 30.5713 24.83L32.1097 26.3683L37.4613 21.0167C38.3063 20.1717 39.6713 20.1717 40.5163 21.0167L40.538 21.0383C41.3613 21.8833 41.3613 23.27 40.5163 24.0933Z" fill="#002746"/>
</g>
<defs>
<clipPath id="clip0_1955_361">
<rect width="52" height="52" fill="white"/>
</clipPath>
</defs>
</svg>
