<svg width="60" height="61" viewBox="0 0 60 61" fill="none" xmlns="http://www.w3.org/2000/svg">
<circle cx="30" cy="30.9375" r="30" fill="#B0DCFF"/>
<path fill-rule="evenodd" clip-rule="evenodd" d="M30.0754 14.6875C33.1363 14.6875 35.5357 14.6875 37.4392 14.8937C39.3818 15.1042 40.9557 15.5414 42.2996 16.5178C43.1132 17.1088 43.8286 17.8243 44.4197 18.6379C45.3961 19.9818 45.8333 21.5557 46.0438 23.4983C46.25 25.4018 46.25 27.8012 46.25 30.862V31.0131C46.25 34.0739 46.25 36.4732 46.0438 38.3767C45.8333 40.3193 45.3961 41.8932 44.4197 43.2371C43.8287 44.0507 43.1132 44.7662 42.2996 45.3572C40.9557 46.3336 39.3818 46.7708 37.4392 46.9813C35.5357 47.1875 33.1363 47.1875 30.0755 47.1875H29.9244C26.8636 47.1875 24.4643 47.1875 22.5608 46.9813C20.6182 46.7708 19.0443 46.3336 17.7004 45.3572C16.8868 44.7661 16.1713 44.0507 15.5803 43.2371C14.6039 41.8932 14.1667 40.3193 13.9562 38.3767C13.75 36.4732 13.75 34.0738 13.75 31.0129V30.8621C13.75 27.8012 13.75 25.4018 13.9562 23.4983C14.1667 21.5557 14.6039 19.9818 15.5803 18.6379C16.1714 17.8243 16.8868 17.1089 17.7004 16.5178C19.0443 15.5414 20.6182 15.1042 22.5608 14.8937C24.4644 14.6875 26.8637 14.6875 29.9246 14.6875H30.0754ZM31.25 22.6042C31.25 21.9138 30.6904 21.3542 30 21.3542C29.3096 21.3542 28.75 21.9138 28.75 22.6042V39.2708C28.75 39.9612 29.3096 40.5208 30 40.5208C30.6904 40.5208 31.25 39.9612 31.25 39.2708V22.6042ZM37.9167 29.2708C37.9167 28.5805 37.357 28.0208 36.6667 28.0208C35.9763 28.0208 35.4167 28.5805 35.4167 29.2708V39.2708C35.4167 39.9612 35.9763 40.5208 36.6667 40.5208C37.357 40.5208 37.9167 39.9612 37.9167 39.2708V29.2708ZM24.5833 32.6042C24.5833 31.9138 24.0237 31.3542 23.3333 31.3542C22.643 31.3542 22.0833 31.9138 22.0833 32.6042V39.2708C22.0833 39.9612 22.643 40.5208 23.3333 40.5208C24.0237 40.5208 24.5833 39.9612 24.5833 39.2708V32.6042Z" fill="#008FFF"/>
</svg>
