<svg width="110" height="110" viewBox="0 0 110 110" fill="none" xmlns="http://www.w3.org/2000/svg">
<g filter="url(#filter0_d_5085_2104)">
<circle cx="55" cy="55" r="40" fill="#008FFF" fill-opacity="0.15"/>
<path fill-rule="evenodd" clip-rule="evenodd" d="M62.5324 53.6668L57.6491 59.9668C57.4491 60.2335 57.1491 60.4002 56.8158 60.4335C56.4824 60.4835 56.1491 60.3835 55.8824 60.1835L51.1824 56.5002L46.9658 61.9835C46.7324 62.3002 46.3491 62.4668 45.9824 62.4668C45.7158 62.4668 45.4491 62.3835 45.2158 62.2002C44.6658 61.7835 44.5658 61.0002 44.9824 60.4502L49.9824 53.9668C50.1824 53.7002 50.4824 53.5335 50.8158 53.5002C51.1491 53.4502 51.4824 53.5502 51.7491 53.7502L56.4491 57.4335L60.5491 52.1335C60.9824 51.5835 61.7658 51.4835 62.3158 51.9168C62.8491 52.3335 62.9491 53.1168 62.5324 53.6668ZM71.0324 49.6835C70.1491 50.1001 69.1491 50.3335 68.1158 50.3335C64.2158 50.3335 61.0324 47.1501 61.0324 43.2501C61.0324 42.1835 61.2658 41.1835 61.6991 40.2835C59.8658 39.9001 57.7324 39.7168 55.2658 39.7168C43.2491 39.7168 38.9824 43.9668 38.9824 56.0002C38.9824 68.0335 43.2491 72.2835 55.2658 72.2835C67.2991 72.2835 71.5658 68.0335 71.5658 56.0002C71.5658 53.5835 71.3991 51.4835 71.0324 49.6835Z" fill="#008FFF"/>
<path fill-rule="evenodd" clip-rule="evenodd" d="M68.1172 46.9987C68.8172 46.9987 69.4839 46.7987 70.0339 46.4653C71.1172 45.8153 71.8505 44.6153 71.8505 43.2487C71.8505 41.182 70.1839 39.4987 68.1172 39.4987C66.7672 39.4987 65.5839 40.2153 64.9172 41.2987C64.5672 41.8653 64.3672 42.532 64.3672 43.2487C64.3672 45.3153 66.0505 46.9987 68.1172 46.9987Z" fill="#008FFF"/>
</g>
<defs>
<filter id="filter0_d_5085_2104" x="0" y="0" width="110" height="110" filterUnits="userSpaceOnUse" color-interpolation-filters="sRGB">
<feFlood flood-opacity="0" result="BackgroundImageFix"/>
<feColorMatrix in="SourceAlpha" type="matrix" values="0 0 0 0 0 0 0 0 0 0 0 0 0 0 0 0 0 0 127 0" result="hardAlpha"/>
<feOffset/>
<feGaussianBlur stdDeviation="7.5"/>
<feComposite in2="hardAlpha" operator="out"/>
<feColorMatrix type="matrix" values="0 0 0 0 0.196078 0 0 0 0 0.196078 0 0 0 0 0.196078 0 0 0 0.15 0"/>
<feBlend mode="normal" in2="BackgroundImageFix" result="effect1_dropShadow_5085_2104"/>
<feBlend mode="normal" in="SourceGraphic" in2="effect1_dropShadow_5085_2104" result="shape"/>
</filter>
</defs>
</svg>
