<svg width="110" height="110" viewBox="0 0 110 110" fill="none" xmlns="http://www.w3.org/2000/svg">
<g filter="url(#filter0_d_5085_2110)">
<circle cx="55" cy="55" r="40" fill="#008FFF" fill-opacity="0.15"/>
<path fill-rule="evenodd" clip-rule="evenodd" d="M63.366 52.8559L62.4327 53.9059C62.3993 53.8559 56.666 48.7725 56.5993 48.7392L57.5327 47.6892C58.966 46.0892 61.4327 45.9392 63.0327 47.3559C63.8993 48.1225 64.3493 49.2059 64.3493 50.2725C64.3493 51.1892 64.0327 52.1059 63.366 52.8559ZM54.3327 63.0725C53.0993 64.4559 51.4327 64.7892 50.116 64.7892C48.916 64.7892 47.9827 64.5059 47.966 64.5059C47.916 64.4892 47.866 64.4392 47.8493 64.3892C47.8327 64.3559 46.116 60.6059 48.4993 57.9059L54.966 50.5892C55.016 50.6392 60.7493 55.7225 60.7993 55.7559L54.3327 63.0725ZM55.416 39.7559C43.416 39.7559 39.166 44.0059 39.166 56.0059C39.166 68.0059 43.416 72.2559 55.416 72.2559C67.416 72.2559 71.666 68.0059 71.666 56.0059C71.666 44.0059 67.416 39.7559 55.416 39.7559Z" fill="#008FFF"/>
</g>
<defs>
<filter id="filter0_d_5085_2110" x="0" y="0" width="110" height="110" filterUnits="userSpaceOnUse" color-interpolation-filters="sRGB">
<feFlood flood-opacity="0" result="BackgroundImageFix"/>
<feColorMatrix in="SourceAlpha" type="matrix" values="0 0 0 0 0 0 0 0 0 0 0 0 0 0 0 0 0 0 127 0" result="hardAlpha"/>
<feOffset/>
<feGaussianBlur stdDeviation="7.5"/>
<feComposite in2="hardAlpha" operator="out"/>
<feColorMatrix type="matrix" values="0 0 0 0 0.196078 0 0 0 0 0.196078 0 0 0 0 0.196078 0 0 0 0.15 0"/>
<feBlend mode="normal" in2="BackgroundImageFix" result="effect1_dropShadow_5085_2110"/>
<feBlend mode="normal" in="SourceGraphic" in2="effect1_dropShadow_5085_2110" result="shape"/>
</filter>
</defs>
</svg>
