<svg width="40" height="40" viewBox="0 0 40 40" fill="none" xmlns="http://www.w3.org/2000/svg">
<circle cx="20" cy="20" r="20" fill="#008FFF"/>
<g clip-path="url(#clip0_2264_786)">
<path d="M20.75 9C20.75 8.58579 20.4142 8.25 20 8.25C19.5858 8.25 19.25 8.58579 19.25 9V11C19.25 11.4142 19.5858 11.75 20 11.75C20.4142 11.75 20.75 11.4142 20.75 11V9Z" fill="#FAFAFA"/>
<path d="M12.7522 11.6915C12.4593 11.3986 11.9844 11.3986 11.6915 11.6915C11.3986 11.9844 11.3986 12.4593 11.6915 12.7522L13.1057 14.1664C13.3986 14.4593 13.8735 14.4593 14.1664 14.1664C14.4593 13.8735 14.4593 13.3986 14.1664 13.1057L12.7522 11.6915Z" fill="#FAFAFA"/>
<path d="M28.3085 12.7522C28.6014 12.4593 28.6014 11.9844 28.3085 11.6915C28.0156 11.3986 27.5407 11.3986 27.2478 11.6915L25.8336 13.1057C25.5407 13.3986 25.5407 13.8735 25.8336 14.1664C26.1265 14.4593 26.6014 14.4593 26.8943 14.1664L28.3085 12.7522Z" fill="#FAFAFA"/>
<path d="M20 13.25C16.2721 13.25 13.25 16.2721 13.25 20C13.25 23.7279 16.2721 26.75 20 26.75C23.7279 26.75 26.75 23.7279 26.75 20C26.75 16.2721 23.7279 13.25 20 13.25Z" fill="#FAFAFA"/>
<path d="M9 19.25C8.58579 19.25 8.25 19.5858 8.25 20C8.25 20.4142 8.58579 20.75 9 20.75H11C11.4142 20.75 11.75 20.4142 11.75 20C11.75 19.5858 11.4142 19.25 11 19.25H9Z" fill="#FAFAFA"/>
<path d="M29 19.25C28.5858 19.25 28.25 19.5858 28.25 20C28.25 20.4142 28.5858 20.75 29 20.75H31C31.4142 20.75 31.75 20.4142 31.75 20C31.75 19.5858 31.4142 19.25 31 19.25H29Z" fill="#FAFAFA"/>
<path d="M14.1664 26.8943C14.4593 26.6014 14.4593 26.1265 14.1664 25.8336C13.8735 25.5407 13.3986 25.5407 13.1057 25.8336L11.6915 27.2478C11.3986 27.5407 11.3986 28.0156 11.6915 28.3085C11.9844 28.6014 12.4593 28.6014 12.7522 28.3085L14.1664 26.8943Z" fill="#FAFAFA"/>
<path d="M26.8943 25.8336C26.6014 25.5407 26.1265 25.5407 25.8336 25.8336C25.5407 26.1265 25.5407 26.6014 25.8336 26.8943L27.2478 28.3085C27.5407 28.6014 28.0156 28.6014 28.3085 28.3085C28.6014 28.0156 28.6014 27.5407 28.3085 27.2478L26.8943 25.8336Z" fill="#FAFAFA"/>
<path d="M20.75 29C20.75 28.5858 20.4142 28.25 20 28.25C19.5858 28.25 19.25 28.5858 19.25 29V31C19.25 31.4142 19.5858 31.75 20 31.75C20.4142 31.75 20.75 31.4142 20.75 31V29Z" fill="#FAFAFA"/>
</g>
<defs>
<clipPath id="clip0_2264_786">
<rect width="24" height="24" fill="white" transform="translate(8 8)"/>
</clipPath>
</defs>
</svg>
