<svg width="40" height="40" viewBox="0 0 40 40" fill="none" xmlns="http://www.w3.org/2000/svg">
<circle cx="20" cy="20" r="20" fill="white"/>
<g clip-path="url(#clip0_2557_1326)">
<path d="M26 12H14C12.8954 12 12 12.8954 12 14V26C12 27.1046 12.8954 28 14 28H26C27.1046 28 28 27.1046 28 26V14C28 12.8954 27.1046 12 26 12Z" stroke="#008FFF" stroke-width="2" stroke-linecap="round" stroke-linejoin="round"/>
<path d="M23 17H17V23H23V17Z" stroke="#008FFF" stroke-width="2" stroke-linecap="round" stroke-linejoin="round"/>
<path d="M17 9V12" stroke="#008FFF" stroke-width="2" stroke-linecap="round" stroke-linejoin="round"/>
<path d="M23 9V12" stroke="#008FFF" stroke-width="2" stroke-linecap="round" stroke-linejoin="round"/>
<path d="M17 28V31" stroke="#008FFF" stroke-width="2" stroke-linecap="round" stroke-linejoin="round"/>
<path d="M23 28V31" stroke="#008FFF" stroke-width="2" stroke-linecap="round" stroke-linejoin="round"/>
<path d="M28 17H31" stroke="#008FFF" stroke-width="2" stroke-linecap="round" stroke-linejoin="round"/>
<path d="M28 22H31" stroke="#008FFF" stroke-width="2" stroke-linecap="round" stroke-linejoin="round"/>
<path d="M9 17H12" stroke="#008FFF" stroke-width="2" stroke-linecap="round" stroke-linejoin="round"/>
<path d="M9 22H12" stroke="#008FFF" stroke-width="2" stroke-linecap="round" stroke-linejoin="round"/>
</g>
<defs>
<clipPath id="clip0_2557_1326">
<rect width="24" height="24" fill="white" transform="translate(8 8)"/>
</clipPath>
</defs>
</svg>
