<svg width="40" height="40" viewBox="0 0 40 40" fill="none" xmlns="http://www.w3.org/2000/svg">
<circle cx="20" cy="20" r="20" fill="#008FFF"/>
<path fill-rule="evenodd" clip-rule="evenodd" d="M30 20C30 25.5228 25.5228 30 20 30C14.4772 30 10 25.5228 10 20C10 14.4772 14.4772 10 20 10C25.5228 10 30 14.4772 30 20ZM14.6548 21.3342C15.0225 21.1435 15.4751 21.287 15.6658 21.6548C15.9349 22.1738 16.4947 22.8336 17.2717 23.3619C18.0419 23.8856 18.9809 24.25 20 24.25C21.0191 24.25 21.9581 23.8856 22.7283 23.3619C23.5053 22.8336 24.0651 22.1738 24.3342 21.6548C24.5249 21.287 24.9775 21.1435 25.3452 21.3342C25.713 21.5249 25.8565 21.9775 25.6658 22.3452C25.2683 23.112 24.5281 23.9521 23.5717 24.6024C22.6085 25.2573 21.3809 25.75 20 25.75C18.6191 25.75 17.3915 25.2573 16.4283 24.6024C15.4719 23.9521 14.7317 23.112 14.3342 22.3452C14.1435 21.9775 14.287 21.5249 14.6548 21.3342ZM17 17C17.5523 17 18 16.5523 18 16C18 15.4477 17.5523 15 17 15C16.4477 15 16 15.4477 16 16C16 16.5523 16.4477 17 17 17ZM23 17C23.5523 17 24 16.5523 24 16C24 15.4477 23.5523 15 23 15C22.4477 15 22 15.4477 22 16C22 16.5523 22.4477 17 23 17Z" fill="#FAFAFA"/>
</svg>
