<svg width="110" height="110" viewBox="0 0 110 110" fill="none" xmlns="http://www.w3.org/2000/svg">
<g filter="url(#filter0_d_5082_1922)">
<circle cx="55" cy="55" r="40" fill="#008FFF" fill-opacity="0.15"/>
<path fill-rule="evenodd" clip-rule="evenodd" d="M55.4174 58.05C48.8958 58.05 43.1758 61.8867 43.1758 66.2584C43.1758 71.8834 52.3907 71.8834 55.4174 71.8834C58.4441 71.8834 67.6574 71.8834 67.6574 66.2217C67.6574 61.8684 61.9374 58.05 55.4174 58.05Z" fill="#008FFF"/>
<path fill-rule="evenodd" clip-rule="evenodd" d="M55.3531 54.4036H55.4047C59.8964 54.4036 63.5497 50.7502 63.5497 46.2586C63.5497 41.7686 59.8964 38.1152 55.4047 38.1152C50.9131 38.1152 47.2598 41.7686 47.2598 46.2552C47.2448 50.7319 50.8731 54.387 55.3531 54.4036Z" fill="#008FFF"/>
</g>
<defs>
<filter id="filter0_d_5082_1922" x="0" y="0" width="110" height="110" filterUnits="userSpaceOnUse" color-interpolation-filters="sRGB">
<feFlood flood-opacity="0" result="BackgroundImageFix"/>
<feColorMatrix in="SourceAlpha" type="matrix" values="0 0 0 0 0 0 0 0 0 0 0 0 0 0 0 0 0 0 127 0" result="hardAlpha"/>
<feOffset/>
<feGaussianBlur stdDeviation="7.5"/>
<feComposite in2="hardAlpha" operator="out"/>
<feColorMatrix type="matrix" values="0 0 0 0 0.196078 0 0 0 0 0.196078 0 0 0 0 0.196078 0 0 0 0.15 0"/>
<feBlend mode="normal" in2="BackgroundImageFix" result="effect1_dropShadow_5082_1922"/>
<feBlend mode="normal" in="SourceGraphic" in2="effect1_dropShadow_5082_1922" result="shape"/>
</filter>
</defs>
</svg>
