<svg width="40" height="40" viewBox="0 0 40 40" fill="none" xmlns="http://www.w3.org/2000/svg">
<circle cx="20" cy="20" r="20" fill="#008FFF"/>
<path d="M17.3449 16.3146L19.5754 12.69C19.8393 12.2612 20.3067 12 20.8101 12C21.6987 12 22.3782 12.792 22.243 13.6702L22 15.25C21.7371 16.9589 23.0593 18.5 24.7882 18.5H25.478C28.015 18.5 29.6651 21.1699 28.5305 23.439L27.382 25.7361C26.535 27.43 24.8037 28.5 22.9098 28.5H20C18.6521 28.5 17.4599 27.8333 16.7352 26.8117C16.745 26.7091 16.75 26.6051 16.75 26.5V18.5C16.75 18.169 16.7005 17.8496 16.6085 17.5487C16.7858 17.2231 17.0217 16.8397 17.3449 16.3146Z" fill="#FAFAFA"/>
<path d="M15.25 26.5C15.25 27.4665 14.4665 28.25 13.5 28.25C12.5335 28.25 11.75 27.4665 11.75 26.5V18.5C11.75 17.5335 12.5335 16.75 13.5 16.75C14.4665 16.75 15.25 17.5335 15.25 18.5V26.5Z" fill="#FAFAFA"/>
</svg>
