<svg width="45" height="45" viewBox="0 0 45 45" fill="none" xmlns="http://www.w3.org/2000/svg">
<rect x="0.5" y="0.5" width="44" height="44" rx="22" fill="#E6EAEC"/>
<path d="M28.4997 23.5H23.4397C23.0997 26.6 21.1797 29.22 18.4997 30.55C18.4697 32.36 16.8397 33.78 14.9497 33.45C13.7497 33.24 12.7597 32.25 12.5497 31.05C12.2097 29.15 13.6597 27.5 15.4997 27.5C16.4497 27.5 17.2797 27.95 17.8297 28.64C19.7297 27.61 21.0897 25.73 21.4097 23.5H18.3097C17.8297 24.84 16.4497 25.74 14.8897 25.44C13.7097 25.21 12.7597 24.24 12.5397 23.06C12.1997 21.16 13.6597 19.5 15.4997 19.5C16.7997 19.5 17.8997 20.34 18.3197 21.5H21.4197C21.0997 19.27 19.7297 17.4 17.8297 16.36C17.1897 17.16 16.1597 17.64 15.0197 17.46C13.7897 17.27 12.7597 16.27 12.5497 15.04C12.2197 13.15 13.6697 11.5 15.4997 11.5C17.1397 11.5 18.4597 12.81 18.4897 14.45C21.1697 15.78 23.0897 18.4 23.4297 21.5H28.4997V19.71C28.4997 19.26 29.0397 19.04 29.3497 19.36L32.1397 22.15C32.3397 22.35 32.3397 22.66 32.1397 22.86L29.3497 25.65C29.0397 25.96 28.4997 25.74 28.4997 25.29V23.5Z" fill="#323232"/>
</svg>
