<svg width="113" height="77" viewBox="0 0 113 77" fill="none" xmlns="http://www.w3.org/2000/svg">
<path d="M0 31.8935L36.9848 0L73.9696 31.8935V77H0V31.8935Z" fill="#008FFF"/>
<path d="M73.9824 0.912687C74.1231 -0.304229 75.8427 -0.304229 75.9834 0.912687L77.163 11.1215C78.6862 24.3038 88.8072 34.6971 101.644 36.2613L111.586 37.4726C112.771 37.6171 112.771 39.3829 111.586 39.5274L101.644 40.7388C88.8072 42.3029 78.6862 52.6962 77.163 65.8784L75.9834 76.0872C75.8427 77.3043 74.1231 77.3043 73.9824 76.0872L72.8028 65.8784C71.2797 52.6962 61.1586 42.3029 48.3216 40.7388L38.3802 39.5274C37.1952 39.3829 37.1952 37.6171 38.3802 37.4726L48.3216 36.2613C61.1586 34.6971 71.2797 24.3038 72.8028 11.1215L73.9824 0.912687Z" fill="#FFCE4F"/>
</svg>
