<svg width="237" height="51" viewBox="0 0 237 51" fill="none" xmlns="http://www.w3.org/2000/svg">
<g clip-path="url(#clip0_5860_1720)">
<path d="M31.1638 21.25L28.04 10.965C27.4238 8.94624 24.5763 8.94624 23.9813 10.965L20.8363 21.25H11.38C9.31875 21.25 8.46875 23.9062 10.1475 25.0962L17.8825 30.6212L14.8438 40.4175C14.2275 42.3937 16.5225 43.9875 18.1588 42.7337L26 36.7837L33.8413 42.755C35.4775 44.0087 37.7725 42.415 37.1563 40.4387L34.1175 30.6425L41.8525 25.1175C43.5313 23.9062 42.6813 21.2712 40.62 21.2712H31.1638V21.25Z" fill="#FFCB45"/>
</g>
<g clip-path="url(#clip1_5860_1720)">
<path d="M77.1638 21.25L74.04 10.965C73.4238 8.94624 70.5763 8.94624 69.9813 10.965L66.8363 21.25H57.38C55.3188 21.25 54.4688 23.9062 56.1475 25.0962L63.8825 30.6212L60.8438 40.4175C60.2275 42.3937 62.5225 43.9875 64.1588 42.7337L72 36.7837L79.8413 42.755C81.4775 44.0087 83.7725 42.415 83.1563 40.4387L80.1175 30.6425L87.8525 25.1175C89.5313 23.9062 88.6813 21.2712 86.62 21.2712H77.1638V21.25Z" fill="#FFCB45"/>
</g>
<g clip-path="url(#clip2_5860_1720)">
<path d="M123.765 22.2631L120.58 12.3283C119.952 10.3783 117.049 10.3783 116.442 12.3283L113.235 22.2631H103.594C101.492 22.2631 100.625 24.8289 102.337 25.9783L110.224 31.3152L107.125 40.7778C106.497 42.6868 108.837 44.2262 110.505 43.0152L118.5 37.2678L126.495 43.0357C128.164 44.2468 130.504 42.7073 129.875 40.7983L126.777 31.3357L134.664 25.9989C136.375 24.8289 135.509 22.2836 133.407 22.2836H123.765V22.2631Z" fill="#FFCB45"/>
</g>
<g clip-path="url(#clip3_5860_1720)">
<path d="M170.164 21.25L167.04 10.965C166.424 8.94624 163.576 8.94624 162.981 10.965L159.836 21.25H150.38C148.319 21.25 147.469 23.9062 149.148 25.0962L156.883 30.6212L153.844 40.4175C153.228 42.3937 155.523 43.9875 157.159 42.7337L165 36.7837L172.841 42.755C174.478 44.0087 176.773 42.415 176.156 40.4387L173.118 30.6425L180.853 25.1175C182.531 23.9062 181.681 21.2712 179.62 21.2712H170.164V21.25Z" fill="#FFCB45"/>
</g>
<g clip-path="url(#clip4_5860_1720)">
<path d="M227.256 19.21L216.971 18.3175L212.955 8.86125C212.232 7.14 209.767 7.14 209.045 8.86125L205.029 18.3387L194.765 19.21C192.895 19.3588 192.13 21.6962 193.554 22.9288L201.352 29.6863L199.015 39.7163C198.59 41.5438 200.566 42.9888 202.181 42.0112L211 36.6988L219.819 42.0325C221.434 43.01 223.41 41.565 222.985 39.7375L220.647 29.6863L228.446 22.9288C229.87 21.6962 229.126 19.3588 227.256 19.21ZM211 32.725V12.9625L214.634 21.5475L223.941 22.355L216.886 28.475L219.011 37.57L211 32.725Z" fill="#FFCB45"/>
</g>
<defs>
<clipPath id="clip0_5860_1720">
<rect width="51" height="51" fill="white" transform="translate(0.5)"/>
</clipPath>
<clipPath id="clip1_5860_1720">
<rect width="51" height="51" fill="white" transform="translate(46.5)"/>
</clipPath>
<clipPath id="clip2_5860_1720">
<rect width="52" height="49.2632" fill="white" transform="translate(92.5 1.73682)"/>
</clipPath>
<clipPath id="clip3_5860_1720">
<rect width="51" height="51" fill="white" transform="translate(139.5)"/>
</clipPath>
<clipPath id="clip4_5860_1720">
<rect width="51" height="51" fill="white" transform="translate(185.5)"/>
</clipPath>
</defs>
</svg>
