<svg width="49" height="49" viewBox="0 0 49 49" fill="none" xmlns="http://www.w3.org/2000/svg">
<g clip-path="url(#clip0_1955_368)">
<path d="M26.787 4.20581L15.4762 15.5166C14.7207 16.2721 14.292 17.3133 14.292 18.3954V38.7916C14.292 41.0375 16.1295 42.875 18.3753 42.875H36.7503C38.3837 42.875 39.8537 41.895 40.507 40.4046L47.1628 24.8675C48.8778 20.825 45.9174 16.3333 41.5278 16.3333H29.9924L31.932 6.98248C32.1362 5.96164 31.8299 4.92039 31.0949 4.18539C29.8903 3.00123 27.9712 3.00123 26.787 4.20581ZM6.12533 42.875C8.37116 42.875 10.2087 41.0375 10.2087 38.7916V22.4583C10.2087 20.2125 8.37116 18.375 6.12533 18.375C3.87949 18.375 2.04199 20.2125 2.04199 22.4583V38.7916C2.04199 41.0375 3.87949 42.875 6.12533 42.875Z" fill="#002746"/>
</g>
<defs>
<clipPath id="clip0_1955_368">
<rect width="49" height="49" fill="white"/>
</clipPath>
</defs>
</svg>
